<svg xmlns="http://www.w3.org/2000/svg" xml:space="preserve" width="381.2" height="111.133"><path d="M953.453 91.746v631.469h174.917V91.746H953.453M1220.17 91.746v631.469h481.01V600.793h-306.11V470.484h281.6V348.027h-281.6V214.238h306.11V91.746h-481.01M1799.19 91.746v631.469h480.89V600.793h-306.03V470.484h281.51V348.027h-281.51V214.238h306.03V91.746h-480.89M2378.02 91.746v631.469h481.02V600.793h-306V470.484h281.52V348.027h-281.52V214.238h306V91.746h-481.02M399.031 344.121c-2.316-44.59-2.883-85.851-6.176-130.558 17.641-1.598 37.559-3.141 56.375-.399l-5.617 124.609-.984 5.926c-14.336-.554-27.899-1.133-43.598.422zM288.813 469.332c-21.735-10.898-53.711-27.363-50.192-57.18 4.66-16.273 22.281-26.793 36.227-33.492 77.09-33.953 179.429-35.113 260.828-9.765 20.09 7.746 47.054 18.988 50.75 43.593-.219 20.344-21.742 33.153-37.215 40.934v.961c5.394 2.14 11.594 4.051 17.187 4.64v.547c-27.273 4.879-53.582 12.008-79.992 19 5.082-11.593 8.754-23.808 12.992-35.851 7.93 2.535 16.075 4.465 24.633 5.625 13.93-5.41 33.86-13.168 35.832-30.586 1.547-16.266-16.265-24.203-27.519-30.817-59.692-21.718-126.864-23.836-189.125-7.324-17.199 5.422-42.024 12.375-44.156 34.274 12.21 28.828 43.785 34.828 70.152 41.832-13.551 8.726-27.336 16.461-40.469 26.172-14.183-.786-27.148-6.993-39.933-12.563zm131.894 173.93-7.727-24.805-38.757-111.008c9.707-.984 21.718 0 31.257-.984v-.914l-5.671-125.563.976-1.328c12.399-1.211 27.875-1.836 40.508.332v1.977l-5.055 121.785.758 4.121 34.102.574a5566.271 5566.271 0 0 0-49.387 135.813h-1.004zm-18.008 55.769c28.516 19.426 54.094-7.722 76.184-23.246 85.418-68.75 166.019-147.441 227.43-236.308 7.75-11.469 11.246-29.278 4.3-42.25-15.925-26.563-37.398-50.801-57.765-75.411v-1.347c-50.782-54.063-104.41-109.629-162.368-155.403-28.277-17.214-54.242-54.804-90.671-31.519-82.946 60.613-162.325 135.984-229.618 216.812-11.406 17.766-29.222 32.325-37.156 52.485-11.078 27.289 13.344 46.879 27.317 67.426 68.601 84.621 153.812 167.597 242.347 228.761zm71.489 80.828-31.559 44.735c-3.875 2.367-8.707 6.265-12.977 7.414-9.316 4.031-19.359-.84-26.953-6.613l-57.133-74.415C253.922 637.484 145.43 531.484 27.055 450.242c-9.356-7.308-23.27-14.445-26.16-26.496-3.11-10.84 2.539-19.781 9.257-26.519 94.786-65.293 185.414-142.793 266.071-231.18 14.324-15.051 25.929-30.012 39.929-44.133 23.594-31.398 51.313-63.027 72.996-96.71 6.793-7.118 7.969-18.798 18.606-22.267 8.32-2.878 18.601-4.832 26.539 0l7.898 7.93C540.27 149.805 664.648 274.57 803.613 375.313c13.914 12.421 40.473 17.05 40.86 40.113-.993 10.633-7.176 21.105-16.313 26.926l-2.277.367c-71.52 48.648-138.145 103.664-200.918 166.082l-69.375 72.465c-28.106 31.16-55.414 65.668-81.402 98.593zm-81.731-63.746c27.879 21.703 62.965 3.684 86.426-16.273 24.574-18.785 50.16-40.059 72.625-61.817l4.082-2.343c62.203-57.711 119.973-121.848 167.433-189.668 7.696-11.801 14.493-25.168 10.2-40.836-15.836-39.563-47.985-71.106-76.11-105.645-60.828-65.48-124.996-128.84-196.836-179.386-14.531-10.274-34.125-19.762-51.539-11.598-52.875 27.672-97.465 73.004-143.738 114.324-53.684 49.774-107.551 107.715-148.23 168.328-6.043 8.52-7.747 19-7.575 30.219 5.235 20.934 19.559 38.152 33.129 55.789 48.071 61.254 106.953 119.363 166.41 172.441 1.371 1.368 3.914 4.258 6.063 5.641 25.535 22.074 50.906 41.625 77.66 60.824" style="fill:#171717;fill-opacity:1;fill-rule:nonzero;stroke:none" transform="matrix(.13333 0 0 -.13333 0 111.133)"/><path d="M564.742 62.629h-6.015v7.625h4.753c2.579 0 6.075-.254 6.075-3.535 0-3.465-1.782-4.09-4.813-4.09zm11.988 3.418c0 7.234-4.781 9.508-12.957 9.508h-11.804V43.973h6.758v13.285h3.207l7.269-13.285h8.055l-8.153 13.859c4.27.352 7.625 2.422 7.625 8.215zm-13.125-28.871v.097c-11.636-.097-21.015 8.957-21.015 22.512 0 13.496 9.379 22.473 21.015 22.473 11.356 0 21.036-8.977 21.036-22.473 0-13.554-9.68-22.61-21.036-22.61zm0 51.926c-15.597 0-29.464-10.801-29.464-29.317 0-18.554 13.867-29.394 29.464-29.394 15.493 0 29.383 10.84 29.383 29.394 0 18.516-13.89 29.317-29.383 29.317" style="fill:#171717;fill-opacity:1;fill-rule:evenodd;stroke:none" transform="matrix(.13333 0 0 -.13333 0 111.133)"/></svg>