<svg xmlns="http://www.w3.org/2000/svg" width="920" height="200"><path style="fill:#86bc24;fill-opacity:1;fill-rule:nonzero;stroke:none" d="M3054.827 974.386a4.32 4.32 0 1 1 8.637 0 4.32 4.32 0 0 1-8.637 0" transform="matrix(5.4348 0 0 5.4348 -15746.429 -5136.262)"/><path style="fill:#0f0b0b;fill-opacity:1;fill-rule:nonzero;stroke:none" d="M2917.055 962.946c0-2.737-.53-4.767-1.587-6.09-1.058-1.32-2.662-1.98-4.818-1.98h-2.294v16.732h1.755c2.395 0 4.15-.71 5.267-2.135 1.117-1.422 1.677-3.599 1.677-6.527m8.18-.285c0 4.985-1.34 8.826-4.02 11.522-2.68 2.698-6.448 4.046-11.304 4.046h-9.436v-29.87h10.095c4.682 0 8.297 1.225 10.845 3.677 2.546 2.452 3.82 5.992 3.82 10.625M2951.373 978.229h7.509v-29.996h-7.509v29.996zM2969.43 967.04c0 1.913.25 3.371.749 4.374.5 1.004 1.337 1.505 2.515 1.505 1.165 0 1.989-.501 2.469-1.505.48-1.003.718-2.461.718-4.374 0-1.902-.242-3.337-.728-4.306-.488-.971-1.32-1.458-2.498-1.458-1.152 0-1.976.484-2.476 1.447-.499.963-.749 2.402-.749 4.317m14.094 0c0 3.644-.955 6.486-2.87 8.524-1.914 2.039-4.593 3.059-8.036 3.059-3.303 0-5.932-1.043-7.883-3.128-1.954-2.085-2.93-4.902-2.93-8.455 0-3.632.956-6.455 2.871-8.467 1.915-2.013 4.6-3.02 8.058-3.02 2.136 0 4.026.467 5.664 1.398 1.638.932 2.903 2.265 3.792 4.003.89 1.735 1.334 3.765 1.334 6.086M2986.506 978.23h7.51v-22.282h-7.51v22.281zM2986.506 953.253h7.51v-5.022h-7.51v5.022zM3009.23 972.546c1.015 0 2.222-.258 3.63-.769v5.606c-1.012.445-1.974.764-2.89.953-.914.191-1.988.286-3.217.286-2.521 0-4.339-.634-5.455-1.899-1.111-1.265-1.668-3.207-1.668-5.828v-9.185H2997v-5.76h2.63v-5.69l7.567-1.317v7.007h4.791v5.76h-4.791v8.672c0 1.443.679 2.164 2.034 2.164M3026.612 972.546c1.013 0 2.22-.258 3.63-.769v5.606c-1.012.445-1.975.764-2.89.953-.917.191-1.987.286-3.218.286-2.521 0-4.339-.634-5.452-1.899-1.114-1.265-1.672-3.207-1.672-5.828v-9.185h-2.63v-5.76h2.63v-5.777l7.567-1.23v7.007h4.793v5.76h-4.793v8.672c0 1.443.678 2.164 2.035 2.164M3039.717 964.326c.103-1.22.452-2.114 1.047-2.685.597-.57 1.335-.855 2.217-.855.963 0 1.728.32 2.295.965.571.641.869 1.5.893 2.575h-6.452zm10.59-6.145c-1.785-1.75-4.317-2.626-7.593-2.626-3.444 0-6.094 1.006-7.952 3.018-1.856 2.013-2.785 4.9-2.785 8.663 0 3.644 1.004 6.454 3.007 8.426 2.003 1.973 4.817 2.96 8.44 2.96 1.74 0 3.238-.119 4.493-.355a13 13 0 0 0 3.627-1.266l-1.154-5.021c-.851.347-1.661.615-2.426.79-1.105.257-2.318.386-3.638.386-1.447 0-2.59-.354-3.427-1.061-.838-.71-1.284-1.687-1.335-2.932h13.422v-3.42c0-3.292-.892-5.813-2.679-7.562M2935.2 964.326c.103-1.22.452-2.114 1.047-2.685.596-.57 1.335-.855 2.219-.855.96 0 1.725.32 2.294.965.57.641.867 1.5.893 2.575h-6.452zm10.592-6.145c-1.786-1.75-4.318-2.626-7.595-2.626-3.445 0-6.094 1.006-7.95 3.018-1.856 2.013-2.786 4.9-2.786 8.663 0 3.644 1.002 6.454 3.007 8.426 2.003 1.973 4.816 2.96 8.44 2.96 1.74 0 3.238-.119 4.493-.355a13.02 13.02 0 0 0 3.627-1.266l-1.155-5.021c-.851.347-1.661.615-2.425.79-1.107.257-2.319.386-3.639.386-1.446 0-2.59-.354-3.427-1.061-.839-.71-1.284-1.687-1.335-2.932h13.422v-3.42c0-3.292-.892-5.813-2.677-7.562" transform="matrix(5.4348 0 0 5.4348 -15746.429 -5136.262)"/></svg>