<svg xmlns="http://www.w3.org/2000/svg" width="1000" height="229.088" viewBox="0 0 264.583 60.613"><path class="st0" d="M168.154 274.327c-4.607 0-8.356-3.75-8.356-8.356 0-4.607 3.749-8.356 8.356-8.356 4.607 0 8.355 3.749 8.355 8.356 0 4.652-3.794 8.356-8.355 8.356m0-21.68c-7.362 0-13.324 5.962-13.324 13.324s5.962 13.324 13.324 13.324 13.324-5.962 13.324-13.324c0-7.317-5.962-13.324-13.324-13.324M151.849 275.004h1.084v5.014h-1.084c-5.736 0-10.434-4.698-10.434-10.434v-22.9h5.014v6.686h6.458v5.013h-6.458v11.246c0 2.936 2.439 5.375 5.42 5.375M212.913 274.327c-4.607 0-8.355-3.75-8.355-8.356 0-4.607 3.748-8.356 8.355-8.356s8.356 3.749 8.356 8.356c-.045 4.652-3.794 8.356-8.356 8.356m0-21.68c-7.362 0-13.324 5.962-13.324 13.324s5.962 13.324 13.324 13.324 13.324-5.962 13.324-13.324c0-7.317-5.962-13.324-13.324-13.324M251.26 274.327c-4.608 0-8.356-3.75-8.356-8.356 0-4.607 3.748-8.356 8.355-8.356s8.356 3.749 8.356 8.356c0 4.652-3.794 8.356-8.356 8.356m0-21.68c-7.362 0-13.324 5.962-13.324 13.324s5.962 13.324 13.324 13.324c3.252 0 6.233-1.174 8.537-3.117v2.62h4.787v-12.827c0-7.317-5.962-13.324-13.324-13.324M195.253 252.647h2.394v5.013h-2.394c-2.98 0-5.42 2.44-5.42 5.42v15.899h-5.013V263.08c0-5.736 4.697-10.433 10.433-10.433M229.58 246.007h5.013v32.881h-5.013zM108.083 263.758v15.853h-5.014v-15.853c0-2.981-2.439-5.42-5.42-5.42-2.98 0-5.42 2.439-5.42 5.42v15.853h-5.013v-15.853c0-2.981-2.44-5.42-5.42-5.42-2.981 0-5.42 2.439-5.42 5.42v15.853h-5.013v-15.853c0-5.736 4.697-10.434 10.388-10.434 3.207 0 6.007 1.4 7.949 3.659 1.942-2.259 4.742-3.659 7.95-3.659 5.735 0 10.433 4.698 10.433 10.434M124.794 275.004c-4.607 0-8.356-3.749-8.356-8.356 0-4.607 3.75-8.355 8.356-8.355 4.607 0 8.356 3.748 8.356 8.355s-3.794 8.356-8.356 8.356m0-21.68c-7.407 0-13.37 5.962-13.37 13.324s5.963 13.324 13.325 13.324c7.362 0 13.324-5.962 13.324-13.324.045-7.317-5.917-13.324-13.279-13.324" style="fill:#000;stroke-width:.45166153" transform="translate(0 -236.387)"/><path class="st1" d="M30.306 236.387C13.55 236.387 0 249.937 0 266.694 0 283.45 13.55 297 30.306 297c16.757 0 30.307-13.55 30.307-30.306 0-16.667-13.37-30.307-30.307-30.307" style="fill:#000;stroke-width:.45166153" transform="translate(0 -236.387)"/><path class="st2" d="m39.34 243.84-8.988 29.81-.046.044-.09-.045-8.988-29.81L9.62 282.005h2.168s1.446-6.64 3.84-10.614c1.31-2.168 3.297-3.93 5.961-3.885 1.897.046 3.523 1.084 5.556 3.93.451.632.993 1.671 1.535 2.665a56.37 56.37 0 0 1 1.581 3.387s1.897-4.336 3.117-6.052c2.032-2.846 3.658-3.884 5.555-3.93 2.665-.045 4.697 1.717 5.962 3.885 2.394 3.974 3.84 10.614 3.84 10.614h2.167z" style="fill:#fff;stroke-width:.45166153" transform="translate(0 -236.387)"/></svg>