<?xml version="1.0" encoding="utf-8"?>
<!-- Generator: Adobe Illustrator 21.0.0, SVG Export Plug-In . SVG Version: 6.00 Build 0)  -->
<svg version="1.1" id="Layer_1" xmlns="http://www.w3.org/2000/svg" xmlns:xlink="http://www.w3.org/1999/xlink" x="0px" y="0px"
	 viewBox="0 0 648 213" style="enable-background:new 0 0 648 213;" xml:space="preserve">
<style type="text/css">
	.st0{fill:#4E2A84;}
</style>
<g>
	<g>
		<polygon class="st0" points="23.4,26 23.4,28.6 30,36 30,86.7 21.1,89.1 21.1,92.1 45.1,92.1 45.1,89.1 37.6,87.1 35.6,84.7 
			35.6,42.5 77.7,92.6 81.4,92.6 81.4,32.4 90.4,29.7 90.4,26.5 66,26.5 66,30.1 73.7,32 75.6,34.4 75.6,74.4 75.6,74.4 75.1,74.4 
			34.2,26 		"/>
		<path class="st0" d="M113.6,93.2c-11.9,0-23.3-7.6-23.3-23.9c0-16.1,12.1-24.3,23.3-24.3c11.7,0,23.5,7.3,23.5,23.5
			C137.1,84.1,124.6,93.2,113.6,93.2z M127.8,69.9c0-11.1-6-20.5-15.6-20.5c-8.5,0-12.8,7.4-12.8,18.5s5.3,20.8,15.4,20.8
			C123.4,88.7,127.8,81,127.8,69.9z"/>
		<path class="st0" d="M256.6,65.2c0-11.1-6.2-13.3-13.5-13.3c-6.1,0-10.1,4.6-10.1,4.6l0,7.3V85l1.9,2.4l6.4,2.2l0,2.5h-23.1v-2.6
			l6.5-2.5l0-47.8c0-8.6-2.2-11-6.9-11V26l14.7-5h1c0,0-0.5,10.2-0.5,17.8v13.8c0,0,9.5-7.6,16-7.6c8.1,0,15.7,3.4,15.7,15.4l0,24.6
			l1.9,2.4l6.4,2.2l0,2.5H250v-2.6l6.3-2.4L256.6,65.2z"/>
		<path class="st0" d="M350.2,66.7c0,13.8,7.8,19.5,16.7,19.5c5.5,0,12.2-2.3,12.2-2.3l1,1.9c-2.4,2.4-9,7.4-17.3,7.4
			c-11.3,0-21.4-8.4-21.4-23.9c0-14.1,9.7-24.3,21.8-24.3c9.4,0,16.7,5.6,16.7,16.3c0,2.8-0.5,5.3-0.5,5.3H350.2z M364.8,62.9
			c4.8-0.2,6.4-1.1,6.4-5.9c0-4.2-3-7.3-9.3-7.3c-6.6,0-11.7,5.8-11.7,13.8L364.8,62.9z"/>
		<path class="st0" d="M390.8,91.4c-0.7-0.3-2.5-1.3-2.6-3.4l-0.6-9.4h4.4c1.2,6.4,5.5,10.6,11.2,10.6c5.7,0,8-3,8-6.9
			c0-3.8-3.1-5.7-6.8-7.7l-5.1-2.6c-7.2-3.7-10.8-6.6-10.8-13.8c0-8.9,6.4-13.2,16.4-13.2c7,0,12.5,2.7,12.5,2.7l-1.3,11.6h-4.1
			c0-7.2-3-9.9-9-9.9c-4.1,0-7.8,1.6-7.8,5.5c0,3.2,1.3,4.6,9.1,8.6l4.5,2.3c8.1,4.2,10.4,7.6,10.4,14.4c0,8.1-8.1,13-16,13
			C398.2,93.2,393.7,92.6,390.8,91.4z"/>
		<path class="st0" d="M468.7,66.7c0,13.8,7.8,19.5,16.7,19.5c5.5,0,12.2-2.3,12.2-2.3l1,1.9c-2.4,2.4-9,7.4-17.3,7.4
			c-11.3,0-21.4-8.4-21.4-23.9c0-14.1,9.7-24.3,21.8-24.3c9.4,0,16.7,5.6,16.7,16.3c0,2.8-0.5,5.3-0.5,5.3H468.7z M483.3,62.9
			c4.8-0.2,6.4-1.1,6.4-5.9c0-4.2-3-7.3-9.3-7.3c-6.6,0-11.7,5.8-11.7,13.8L483.3,62.9z"/>
		<path class="st0" d="M590.7,87.4l-1.9-2.4l0.1-25.1c0-11.6-7.5-14.9-15.3-14.9c-6.5,0-15.8,7.6-15.8,7.6c0-4.2,0.2-7.9,0.2-7.9
			h-0.8L542.8,50v2.4c5.5,0,7,5,7,13.9v20.8l-6.5,2.5v2.6h22.8l0.2-2.5l-6.4-2.2L558,85l0-28.4c0,0,3.5-4.7,9.7-4.7
			c6.4,0,13.1,2.3,13.1,13.3l-0.3,22l-6.3,2.4v2.6h22.8l0.2-2.5L590.7,87.4z"/>
		<path class="st0" d="M315.7,92.6l-10.6-29.4l-12.2,29.4h-4.2l-11.9-36.4c-1.7-4.6-2.6-7.2-5.8-7.2v-2.8h19.6V49l-6,2l8.9,30.1
			l7.8-18.8l1.8-4.8l-2.7-7.7l-3.4-0.8v-2.8H316v3l-6,1.8l10,30.1l10.4-29.9l-6.7-2.4v-2.6h17.7V49c-4.1,0.5-6,1.6-9.2,9.7
			l-11.9,33.9H315.7z"/>
		<path class="st0" d="M212.8,85.3c0,0-2.8,1.8-6.9,1.8c-4.5,0-8.5-2.5-8.4-8.6l0.4-26h14.7l0,0h0.1l0.2-1.6h0l1-8.1l-1.9-0.3
			l-1.4,3.1l-0.8,0.7l-11.7,0.5v0l-0.1,0V34.8l-5.7,1L189.7,47l-8.1,0.8v3.9c4.5,0,8.1,0.4,8.1,4.7c0,4.3-0.4,17.6-0.4,23
			c0,10.1,3.9,13.9,10.3,13.9c5.5,0,10.1-2.3,14.3-5.6L212.8,85.3z"/>
		<path class="st0" d="M455.4,85.3c0,0-2.8,1.8-6.9,1.8c-4.5,0-8.5-2.5-8.4-8.6l0.4-26h14.7v0h0l0.2-1.6h0l1-8.1l-1.9-0.3l-1.4,3.1
			l-0.8,0.7l-11.7,0.5v0l0,0V34.8l-5.7,1L432.3,47l-8.1,0.8v3.9c4.5,0,8.1,0.4,8.1,4.7c0,4.3-0.4,17.6-0.4,23
			c0,10.1,3.9,13.9,10.3,13.9c5.5,0,10.1-2.3,14.3-5.6L455.4,85.3z"/>
		<path class="st0" d="M175.9,45.6L175.9,45.6L175.9,45.6c-0.1,0-1.7-0.6-5-0.6c-6.9,0-14.2,10.9-14.2,10.9c0-6,0.2-11.2,0.2-11.2
			h-0.8L142.1,50v2.4c5.4,0,7,4.9,7,13.1v21.6l-6.5,2.5v2.6h22.8l0-2.5l-6.4-2.2L157,85V63.8c0-6.5,5.2-10.2,10.7-10.2
			c1.1,0,2.3,0.3,3.3,0.6l1.6,2.3l1.9,0.2L175.9,45.6L175.9,45.6L175.9,45.6z"/>
		<path class="st0" d="M538.3,45.6L538.3,45.6L538.3,45.6c-0.1,0-1.7-0.6-5-0.6c-6.9,0-14.2,10.9-14.2,10.9c0-6,0.2-11.2,0.2-11.2
			h-0.8L504.4,50v2.4c5.4,0,7,4.9,7,13.1v21.6l-6.5,2.5v2.6h22.8l0-2.5l-6.4-2.2l-1.9-2.4V63.8c0-6.5,5.2-10.2,10.7-10.2
			c1.1,0,2.3,0.3,3.3,0.6l1.6,2.3l1.9,0.2L538.3,45.6L538.3,45.6L538.3,45.6z"/>
	</g>
	<g>
		<path class="st0" d="M229.4,154c0,13.8,7.8,19.5,16.7,19.5c5.5,0,12.2-2.3,12.2-2.3l1,1.9c-2.4,2.4-9,7.4-17.3,7.4
			c-11.3,0-21.4-8.4-21.4-23.9c0-14.1,9.7-24.3,21.8-24.3c9.4,0,16.7,5.6,16.7,16.3c0,2.8-0.5,5.3-0.5,5.3H229.4z M244,150.2
			c4.8-0.2,6.4-1.1,6.4-5.9c0-4.2-3-7.3-9.3-7.3c-6.6,0-11.7,5.8-11.7,13.8L244,150.2z"/>
		<path class="st0" d="M162.2,172.3l1.9,2.4l6.4,2.2l-0.2,2.5h-22.5v-2.6l6.5-2.5l0-22.5c0-9.1-1.8-12.2-7.1-12.2v-2.4l14.5-5.3h0.8
			c0,0-0.3,6.8-0.3,14L162.2,172.3z"/>
		<path class="st0" d="M193.1,133.6v2.6l-6.6,2.2l11,30l11.4-29.8l-6.9-2.4v-2.6h17.6v2.8c-2.6,0-5.7,1.3-9.2,9.7l-12.6,33.9H193
			l-13.8-36.4c-2.2-5.3-4.7-7.2-7.8-7.2v-2.8H193.1z"/>
		<path class="st0" d="M309.4,178.7c-0.7-0.3-2.5-1.3-2.6-3.4l-0.6-9.4h4.4c1.2,6.4,5.5,10.6,11.2,10.6c5.7,0,8-3,8-6.9
			c0-3.8-3.1-5.7-6.8-7.7l-5.1-2.6c-7.2-3.7-10.8-6.6-10.8-13.8c0-8.9,6.4-13.2,16.5-13.2c7,0,12.5,2.7,12.5,2.7l-1.3,11.6h-4.1
			c0-7.2-3-9.9-9-9.9c-4.1,0-7.8,1.6-7.8,5.5c0,3.2,1.3,4.6,9.1,8.6l4.5,2.3c8.1,4.2,10.4,7.6,10.4,14.4c0,8.1-8.1,13-16.1,13
			C316.7,180.5,312.2,179.9,309.4,178.7z"/>
		<path class="st0" d="M412.4,143.6c-2.3-5.3-4.7-7.2-7.8-7.2v-2.8H426v2.6l-6.6,2.2l11.4,30l10.4-29.8l-6.9-2.4v-2.6h18.4v2.8
			c-2.6,0-6.2,1.3-9.4,9.7l-11.6,31.5c-6.4,16.9-14.2,25.8-26.1,25.1l-1.2-9.7c0,0,2.7,0.7,7.6,0.3c5.7-0.4,11.3-6.2,13.7-13.8
			L412.4,143.6z"/>
		<path class="st0" d="M136.5,174.7l-1.9-2.4l0.1-25.1c0-11.6-7.5-14.9-15.3-14.9c-6.5,0-15.8,7.6-15.8,7.6c0-4.2,0.2-7.9,0.2-7.9
			H103l-14.5,5.3v2.4c5.5,0,7,5,7,13.9v20.8l-6.5,2.5v2.6h22.8l0.2-2.5l-6.4-2.2l-1.9-2.4l0-28.4c0,0,3.5-4.7,9.7-4.7
			c6.4,0,13.1,2.3,13.1,13.3l-0.3,22l-6.3,2.4v2.6h22.8l0.2-2.5L136.5,174.7z"/>
		<path class="st0" d="M400.9,172.6c0,0-2.8,1.8-6.9,1.8c-4.5,0-8.5-2.5-8.4-8.6l0.4-26h12.5l0,0h0l0.2-1.6h0l1-8.1l-1.9-0.3
			l-1.4,3.1l-0.8,0.7l-9.5,0.5v0l0,0v-11.8l-5.7,1l-2.5,11.2l-8.1,0.8v3.9c4.5,0,8.1,0.4,8.1,4.7c0,4.3-0.4,17.6-0.4,23
			c0,10.1,3.9,13.9,10.3,13.9c5.5,0,10.1-2.3,14.3-5.6L400.9,172.6z"/>
		<path class="st0" d="M300.6,133L300.6,133L300.6,133c-0.1,0-1.7-0.6-5-0.6c-6.9,0-14.2,10.9-14.2,10.9c0-6,0.2-11.2,0.2-11.2h-0.8
			l-14.2,5.3v2.4c5.4,0,7,4.9,7,13.1v21.6l-6.5,2.5v2.6H290l0-2.5l-6.4-2.2l-1.9-2.4v-21.2c0-6.5,5.2-10.2,10.7-10.2
			c1.1,0,2.3,0.3,3.3,0.6l1.6,2.3l1.9,0.2L300.6,133L300.6,133L300.6,133z"/>
		<path class="st0" d="M158.1,124.5c-1.1,0-6.2-5.6-6.2-6.7c0-1,5-6.7,6.2-6.7c1.3,0,6.2,5.7,6.2,6.7
			C164.3,118.8,159.3,124.5,158.1,124.5z"/>
		<path class="st0" d="M360.4,172.3l1.9,2.4l6.4,2.2l-0.2,2.5h-22.5v-2.6l6.5-2.5l0-22.5c0-9.1-1.8-12.2-7.1-12.2v-2.4l14.5-5.3h0.8
			c0,0-0.3,6.8-0.3,14L360.4,172.3z"/>
		<path class="st0" d="M78.7,157.4c0,17.1-12.2,22.8-23.9,22.8c-17.5,0-24.8-8.2-24.8-23.5v-28.8c0-8.4-2.3-10.3-8.9-10.6V114h27.1
			v3l-9.2,2.9v32.5c0,19.6,7.9,22.5,16.9,22.5c9.4,0,16.6-4.4,16.6-20.3v-12.1v-22.7l-8.9-2.7V114h23.8v3.5l-6.8,1.1l-1.9,2.4v12.7
			L78.7,157.4z"/>
		<path class="st0" d="M356.3,124.5c-1.1,0-6.2-5.6-6.2-6.7c0-1,5-6.7,6.2-6.7c1.3,0,6.2,5.7,6.2,6.7
			C362.5,118.8,357.5,124.5,356.3,124.5z"/>
	</g>
</g>
</svg>
