<svg version="1" xmlns="http://www.w3.org/2000/svg" width="933.333" height="933.333" viewBox="0 0 700.000000 700.000000"><path d="M340.5 6.5c-4.3 2.1-6.8 4.4-10.5 10-1.9 2.7-3.6 5.2-3.9 5.5-1.2 1-11.9 14.8-20.6 26.5-14.3 19.1-42.1 53.8-49.5 61.5-2.8 3-14.5 16.2-15 17-.3.5-6.1 6.8-13 14.1-38.9 41.4-78.7 80.5-106 103.9-4.7 4-8.7 7.6-9 7.9-.3.4-2.7 2.5-5.5 4.6-5.5 4.4-5.8 4.7-16.5 13.5-4.1 3.4-8.7 7.3-10.3 8.6C76 283.8 48 304.4 36 312.5 6.3 332.6.6 338.7.7 349.6c.1 6.2 2.4 11.4 7.2 15.9 2 1.9 12.8 10.2 24.1 18.5s21.2 15.6 22 16.3c.8.7 8.2 6.4 16.5 12.7 13.3 10.2 41.9 33.3 50 40.5 1.7 1.4 5.7 4.9 9 7.8 3.3 2.9 8.5 7.4 11.5 10.2 3 2.7 5.9 5.4 6.6 6 18.6 16.4 76.1 73.5 90.1 89.6 5.1 5.7 16 18.8 24.3 28.9 19.5 23.8 18 21.9 21.4 26.5 1.7 2.2 3.3 4.2 3.7 4.5 1.9 1.4 27.1 36 33.8 46.4 10.5 16.5 13.2 19.2 20.6 21.1 7.5 1.9 11.6 1.9 16.3 0 5.4-2.3 7.2-4.3 21.3-24 15.3-21.5 52.2-68 64.4-81.1.5-.6 3.9-4.4 7.5-8.5 3.6-4 8.8-9.8 11.5-12.9 2.8-3 7-7.7 9.5-10.4 16.7-18.4 51.4-53.3 70-70.6 6.2-5.8 11.8-11 12.4-11.5.6-.6 4.5-3.9 8.6-7.5s8.3-7.3 9.5-8.3c1.1-1.1 8.5-7.3 16.5-14s14.7-12.4 15-12.7c.3-.3 9.1-7.3 19.5-15.6 23.2-18.3 36.7-28.2 55-40.4 14.8-9.8 18.7-13.3 20.3-18.6 2.4-7.8-1.4-19.7-8.5-26.6-2.1-2-7.6-6.1-12.3-9-4.7-3-9.4-6.1-10.5-7-1.1-.9-13.7-10.4-28-21.1-30.8-23.1-71.1-56.5-92-76.1-24.9-23.4-71.4-71.2-94-96.6-20.7-23.1-54.2-65.6-80.7-102.2-7.1-9.9-8-10.7-13.2-12.7-6.5-2.4-14.6-2.6-19.1-.6zm19.9 87.6c9.2 2.5 27.5 13.4 42.8 25.6 6 4.7 40.1 33.5 41.8 35.3.3.3 3.7 3.2 7.5 6.5 17.5 14.9 38 34.8 58.1 56.4 3.8 4.1 7.8 8.4 8.9 9.5 1.1 1.2 5.1 5.7 9 10.1 3.8 4.4 7.2 8.2 7.5 8.5.7.6 16.9 19.7 22.5 26.4 2.2 2.7 4.5 5.4 5 6 3.7 4.1 18.7 23.4 24.7 31.9 4 5.6 7.5 10.4 7.8 10.7 1.2 1.2 6.9 9.8 8.5 13 7 13.5 4.7 28.4-6.8 45.8-7.1 10.8-18.2 25.4-31.1 41.2-11.1 13.7-13.3 16.2-24.1 28-3.3 3.6-8 8.7-10.5 11.4-10.8 11.9-39.8 41.3-58.6 59.3-13.3 12.7-30.2 27.8-46.9 41.7-16.5 13.8-14.9 12.6-25 20.2-31.6 23.8-40 27.5-57.7 25-5.7-.8-12-3.9-23.3-11.3-9-6-33.2-23.7-34.5-25.3-.3-.3-3.2-2.7-6.4-5.4-5.4-4.3-16.7-14.3-25-22.1-1.8-1.7-7.4-6.8-12.6-11.5-5.1-4.7-10.3-9.4-11.4-10.5-1.2-1.1-5.9-5.4-10.6-9.5-4.7-4.1-10.1-9.1-12.1-11-22.7-21.6-43.7-43.4-58.9-61-3.6-4.1-6.9-8-7.5-8.6-5.1-5.7-20.3-24.8-27.1-33.9-3.2-4.4-6.1-8.2-6.4-8.5-2.6-2.3-14.5-22.1-15.6-25.8-2.7-8.8-1-22.2 4.1-32.3 1.4-2.8 12.4-18.8 17.2-24.9 23.2-30.2 46.3-56.4 79.9-90.4 21-21.3 71-67.2 85.2-78.1.7-.6 1.8-1.5 2.5-2 4.7-3.9 24.9-19.6 27.7-21.5 1.9-1.4 4-2.8 4.5-3.2 4.6-3.6 16.7-11.9 19.4-13.3 8.2-4.2 17.8-5 27.5-2.4z"/><path d="M344.4 111.5c-5.4 1.2-12.7 4.6-15.1 7-.8.9-3.6 2.9-6.1 4.7-2.6 1.8-5.2 3.7-5.8 4.3-.6.5-2.6 2.1-4.4 3.5-35.6 26.6-65.9 53.1-102.7 89.8-29.2 29.1-33.1 33.3-58.3 62.2-4.6 5.2-8.6 9.7-8.9 10-3.8 3.3-28.7 36.6-31.2 41.6-2.5 5.3-3 7.5-3.3 14.5-.6 12 4.7 22.1 24 46 25.7 31.8 38.4 45.8 74.9 82.4 29.1 29.2 36.8 36.6 52.5 50.5 4.7 4.1 8.7 7.7 9 8 3.4 3.7 44.4 36.3 49.9 39.8 1.4.9 2.8 1.9 3.1 2.3 1.4 1.6 13.6 9.2 17.7 11 6.7 2.9 15.3 2.9 22.3-.1 8-3.4 17-9 25.3-15.8 3.9-3.2 11.5-9 16.8-12.8 7.6-5.4 25.5-20 36.6-29.9.6-.5 4.9-4.3 9.5-8.4 8.3-7.4 66.5-65.4 78.8-78.6 3.6-3.9 11.9-13.5 18.4-21.5 30.9-37.7 38-47.4 42.5-58 2-4.7 2.3-6.5 1.7-12.5-.6-7.4-2.3-12.9-5.8-19.8-2.6-5.2-3.9-6.9-21.1-28.7-.7-.8-3.7-4.7-6.7-8.5-5.2-6.6-24.2-29.7-26.5-32.1-.5-.6-3.9-4.4-7.5-8.5-25-28.3-65.8-67.9-100-97-18.3-15.6-48.4-38.6-54.5-41.6-8.7-4.4-17.2-5.7-25.1-3.8zM356 182c3.3 9.1 8.1 21.9 10.5 28.5 6.2 17.2 14 38.2 19 51.5 3.1 8.3 3.9 11.7 3.1 12.2-.7.4-5.6.8-10.9.9-5.3.1-11.2.5-13 .8-3.1.7-3.2.9-3 5.1.2 6.7 1.3 30.1 1.9 41.5.3 5.5.7 13.6.9 18 .8 20.7 1.7 37.1 2.1 37.6.2.3-.3 1.5-1.1 2.5-1.2 1.7-2.7 1.9-15.2 1.9-7.6 0-15-.3-16.4-.7-2.3-.7-2.5-1.2-2.4-5.5.1-2.7.5-13.7.9-24.6.4-10.8.9-22.3 1.1-25.5.2-3.1.6-14.2 1-24.6.4-10.4.8-20 1-21.3.3-3.3-2.7-4.4-13.4-4.9-10.6-.5-12.3-1-11.2-3.2.5-.9 1.9-4.4 3-7.7 6-17.6 25.4-73.5 26.6-76.5.7-1.9 2.9-8.1 4.7-13.7 1.8-5.6 3.6-9.9 4-9.5.4.4 3.4 8.1 6.8 17.2zm-65.5 126c11.1 7.1 14.3 9.8 12.5 10.4-.8.2-7.8 2.3-15.5 4.6-15.7 4.6-20.6 7.1-28.4 14.4-12.4 11.7-14.2 18.7-7 26.7 6.7 7.4 26.8 17.1 40 19.3 6.7 1.1 9.4 1.6 11.5 2.1 1.1.2 4.3.7 7 1.1 2.7.3 6 .7 7.4.9 17.8 2.7 52.5 2.6 73.5-.2 9.5-1.2 30-5.6 37.2-7.9 15.4-5 29.9-14.2 33.4-21.2 3.7-7.4.6-16.7-8.2-24.6-8.2-7.5-18.2-9.6-33.9-7.3l-5.6.8-2.1-4.9c-1.2-2.7-2.9-7.8-3.8-11.3-.9-3.5-1.8-7.1-2.1-8-.5-1.7-.3-1.7 8.1-.4 7.5 1.1 50.5 11.2 51.3 12 .2.2-1.4 1.3-3.7 2.5-2.3 1.1-4.1 2.4-4.1 2.8 0 1.2 4.8 4.5 9.5 6.8 8.8 4.1 17.2 15.6 18.3 24.9 1.4 12.5-13.7 27.9-34.9 35.6-7.2 2.6-30.1 9-36.9 10.3-1.4.3-6.1 1.1-10.5 2-4.4.8-10 1.8-12.5 2.1-2.5.3-5.6.8-7 1-14.9 2.6-67.8 2.6-77 0-.8-.3-3.7-.7-6.5-1-14.4-1.4-57.3-12.7-71.8-18.8-4.7-2-17.2-10.6-21.6-14.9-9.3-9.1-11.5-20.7-6-31.7 2-3.9 4.9-7.6 8.2-10.5 6.4-5.4 20.1-14.3 28.5-18.5 7.5-3.8 22.5-8.9 28.4-9.7 2.4-.4 4.4-.7 4.6-.9.4-.4 9.4 4.9 19.7 11.5zm77.6 108.5c.2 7.2.5 16.7 1.3 35.5.8 18.4 1.1 25.7 2.1 50.5l.6 17-5.8.2c-9.4.2-24.5.2-28-.1-1.8-.1-5.4-.3-7.9-.4l-4.6-.2.7-9.8c1-13.6 1.3-20.2 2-40.2.6-19.9 1.6-41.1 2-45.5.1-1.7.3-5.1.4-7.6l.1-4.5h18.5l18.5.1.1 5z"/></svg>